<svg width="25" height="26" viewBox="0 0 25 26" fill="none" xmlns="http://www.w3.org/2000/svg">
<path d="M18.3077 2.1619C17.2569 2.0507 16.2008 1.99666 15.1441 2.00016C11.6407 2.00016 9.46375 4.23093 9.46375 7.82291V10.2613H6.52083C6.23333 10.2611 6.00013 10.494 6 10.7815V14.7931C5.99981 15.0806 6.23276 15.3138 6.52026 15.314H9.46375V23.3543C9.46355 23.6418 9.69651 23.875 9.98401 23.8752H14.1278C14.4153 23.8753 14.6485 23.6424 14.6487 23.3549V15.314H17.5825C17.8442 15.3139 18.0653 15.1198 18.0993 14.8603L18.617 10.8492C18.6542 10.5642 18.4533 10.3028 18.1681 10.2657C18.1456 10.2627 18.123 10.2613 18.1003 10.2613H14.6487V8.22066C14.6487 7.21053 14.8521 6.78837 16.1156 6.78837L18.2396 6.78735C18.5271 6.78748 18.7602 6.55459 18.7604 6.26709V2.67867C18.7605 2.41723 18.5669 2.19623 18.3077 2.1619ZM17.7188 5.74568L16.1156 5.7467C13.8674 5.7467 13.607 7.15865 13.607 8.22066V10.7822C13.6069 11.0696 13.8398 11.3028 14.1273 11.3029H17.5082L17.1247 14.2723H14.1278C13.8403 14.2722 13.6072 14.5051 13.607 14.7926V22.8335H10.5054V14.7931C10.5056 14.5056 10.2727 14.2725 9.98521 14.2723H7.04167V11.3029H9.98458C10.2721 11.3031 10.5052 11.0702 10.5054 10.7827V7.82291C10.5054 4.82914 12.2398 3.04183 15.1441 3.04183C16.1949 3.04183 17.144 3.09879 17.7188 3.14864V5.74568Z" fill="#58734A" stroke="#58734A" stroke-width="0.5"/>
</svg>
