<svg width="25" height="25" viewBox="0 0 25 25" fill="none" xmlns="http://www.w3.org/2000/svg">
<path d="M21.3344 16.132L19.6156 14.4133C19.1033 13.905 18.4117 13.6185 17.6901 13.6154C16.9684 13.6124 16.2745 13.893 15.7578 14.3969C15.4821 14.6741 15.1185 14.8466 14.7293 14.8847C14.3402 14.9228 13.95 14.824 13.6258 14.6055C12.3463 13.7515 11.247 12.6544 10.3906 11.3766C10.1759 11.0488 10.0808 10.657 10.1212 10.2672C10.1616 9.87742 10.3351 9.51349 10.6125 9.23672C11.1118 8.71959 11.3888 8.02755 11.3843 7.30874C11.3798 6.58992 11.0941 5.90143 10.5883 5.39062L8.86954 3.67187C8.35497 3.15907 7.65812 2.87112 6.93165 2.87112C6.20518 2.87112 5.50833 3.15907 4.99376 3.67187L4.49923 4.16719C1.9211 6.74531 2.11407 12.1656 7.47813 17.5266C10.7125 20.7617 13.968 22.1164 16.6078 22.1164C17.3849 22.1423 18.1594 22.0132 18.8861 21.7368C19.6128 21.4604 20.2772 21.042 20.8406 20.5062L21.3359 20.0109C21.8497 19.4961 22.1381 18.7985 22.1378 18.0712C22.1375 17.3439 21.8485 16.6464 21.3344 16.132ZM20.2297 18.9062L19.7344 19.4016C17.7031 21.4328 13.2195 21.0617 8.58126 16.4227C3.94298 11.7836 3.5711 7.29687 5.60235 5.26562L6.09376 4.77109C6.31502 4.55064 6.61462 4.42685 6.92696 4.42685C7.2393 4.42685 7.53891 4.55064 7.76017 4.77109L9.47892 6.48984C9.69615 6.70817 9.81946 7.00275 9.82253 7.31072C9.82559 7.6187 9.70817 7.91568 9.49532 8.13828C8.96741 8.66955 8.63811 9.36611 8.56259 10.1113C8.48706 10.8564 8.66991 11.6049 9.08048 12.2312C10.0536 13.6874 11.3049 14.9369 12.7625 15.9078C13.387 16.3184 14.1335 16.5024 14.8773 16.4289C15.6211 16.3553 16.3172 16.0288 16.8492 15.5039C17.0714 15.2885 17.3692 15.1689 17.6786 15.1708C17.9881 15.1727 18.2844 15.296 18.5039 15.5141L20.2227 17.2328C20.3334 17.342 20.4215 17.472 20.4819 17.6153C20.5422 17.7587 20.5736 17.9125 20.5743 18.0681C20.5749 18.2236 20.5448 18.3777 20.4857 18.5216C20.4265 18.6654 20.3395 18.7962 20.2297 18.9062Z" fill="#58734A" stroke="#58734A" stroke-width="0.2"/>
</svg>
